<?xml version="1.0" standalone="no"?>
<!DOCTYPE svg PUBLIC "-//W3C//DTD SVG 20010904//EN"
 "http://www.w3.org/TR/2001/REC-SVG-20010904/DTD/svg10.dtd">
<svg version="1.0" xmlns="http://www.w3.org/2000/svg"
 width="798.000000pt" height="1280.000000pt" viewBox="0 0 798.000000 1280.000000"
 preserveAspectRatio="xMidYMid meet">
<metadata>
Created by potrace 1.15, written by Peter Selinger 2001-2017
</metadata>
<g transform="translate(0.000000,1280.000000) scale(0.100000,-0.100000)"
fill="#000000" stroke="none">
<path d="M3100 12781 c-111 -36 -435 -173 -456 -192 -11 -10 -26 -19 -32 -19
-7 0 -15 -7 -18 -15 -5 -12 -210 -153 -280 -193 -12 -7 -52 -48 -89 -92 -36
-43 -79 -90 -95 -103 -33 -28 -151 -215 -188 -297 -39 -90 -62 -195 -78 -364
-8 -88 -16 -161 -17 -163 -2 -1 -50 5 -107 13 -172 24 -353 31 -580 23 -424
-16 -692 -45 -717 -77 -7 -9 -13 -42 -13 -74 0 -74 40 -158 102 -212 24 -21
52 -46 63 -55 29 -26 185 -127 220 -143 17 -7 38 -20 48 -29 28 -26 369 -172
562 -241 60 -21 118 -44 128 -51 17 -11 18 -33 17 -324 0 -187 3 -314 9 -317
5 -4 17 -30 26 -59 50 -153 120 -334 136 -352 10 -11 39 -67 64 -125 26 -58
54 -118 62 -133 25 -47 73 -256 92 -400 14 -104 14 -280 -1 -311 -6 -14 -20
-28 -32 -32 -12 -3 -28 -12 -36 -19 -8 -7 -65 -29 -127 -50 -107 -35 -111 -37
-117 -69 -9 -47 -9 -182 -1 -332 l7 -132 -44 5 c-44 5 -46 4 -109 -57 -35 -34
-91 -82 -124 -107 -33 -26 -111 -98 -174 -161 -63 -63 -160 -154 -215 -202
-176 -151 -254 -260 -407 -570 -183 -370 -194 -397 -239 -566 -25 -98 -38
-173 -55 -338 -9 -84 -21 -144 -34 -170 -11 -23 -70 -147 -133 -276 l-113
-234 1 -176 c2 -170 16 -290 35 -290 12 0 12 -77 -1 -85 -15 -9 -12 -98 4
-131 8 -16 24 -85 36 -154 27 -163 57 -278 81 -315 47 -74 63 -124 90 -300 16
-99 38 -225 49 -280 11 -55 29 -163 41 -240 12 -77 30 -160 41 -184 11 -25 27
-66 34 -93 8 -26 23 -56 33 -65 10 -10 29 -38 41 -63 13 -25 43 -67 67 -94 65
-73 142 -187 212 -313 71 -130 70 -120 49 -429 -21 -326 14 -727 84 -963 36
-122 40 -202 13 -281 -39 -115 -21 -186 108 -412 41 -74 82 -160 91 -193 8
-33 18 -70 22 -82 l6 -23 2254 0 c1795 0 2255 3 2259 13 2 6 14 101 26 210 16
146 18 201 10 211 -6 7 -14 34 -17 59 -5 33 -16 57 -41 84 -39 45 -48 69 -39
121 18 104 18 172 1 209 -12 24 -18 63 -19 112 l-1 75 35 22 c19 13 53 37 75
54 22 17 51 39 64 49 l25 18 -17 114 c-30 198 -20 258 50 302 41 26 115 97
168 162 58 71 93 158 145 358 13 49 28 58 51 30 26 -30 266 -129 376 -154 49
-10 358 19 493 47 105 22 229 73 378 156 303 170 359 218 438 383 100 208 142
384 114 485 -8 29 -11 117 -11 257 2 238 -5 271 -60 301 -65 35 -162 128 -221
211 -34 47 -79 103 -100 124 -22 21 -63 75 -92 120 -29 45 -79 114 -111 152
-74 90 -326 333 -423 408 -41 32 -80 64 -86 72 -6 8 -36 25 -66 39 -69 30
-101 65 -130 141 -68 176 -141 282 -311 456 -138 140 -270 235 -459 329 -58
28 -111 55 -119 59 -8 4 -18 14 -21 22 -27 56 -42 76 -73 94 -19 10 -43 32
-52 47 -9 16 -51 54 -93 85 -42 31 -114 93 -158 137 -45 45 -146 144 -225 222
-79 77 -169 168 -199 202 -30 34 -82 84 -115 111 -34 28 -75 74 -95 106 -63
104 -95 133 -170 155 -76 23 -83 29 -125 114 -35 71 -65 94 -310 232 -82 47
-161 96 -175 108 -14 13 -51 38 -83 55 -31 18 -62 41 -67 51 -27 51 0 192 48
246 32 37 60 47 215 74 129 22 235 61 273 98 26 26 36 57 65 194 24 113 38
145 92 206 46 51 51 64 63 162 3 30 17 88 30 128 27 81 30 138 12 223 -14 68
-11 73 68 125 102 68 144 136 144 234 0 52 -4 64 -35 102 -72 90 -102 188
-111 360 -8 158 -12 152 99 138 160 -20 549 -33 667 -21 151 14 425 67 553
108 l47 15 0 69 c0 56 -5 81 -27 126 -15 30 -39 63 -53 71 -14 9 -42 31 -62
49 -68 59 -176 103 -612 248 -155 52 -287 101 -297 112 -18 17 -18 27 -10 138
6 66 15 212 21 325 13 231 6 317 -34 445 -24 76 -31 86 -123 183 -54 56 -109
117 -122 135 -14 18 -40 44 -58 58 -18 13 -52 53 -75 89 -23 36 -60 86 -83
111 -22 25 -71 102 -109 170 -140 251 -160 285 -188 321 -68 87 -212 151 -456
202 -113 24 -142 26 -365 25 -204 0 -251 -3 -297 -18z"/>
</g>
</svg>
